<svg xmlns="http://www.w3.org/2000/svg" style="display: none">
    <symbol id="smallHeartIcon" viewBox="0 0 20 18" fill="none">
        <path d="M10.0017 2.92507C9.3979 2.24903 8.6225 1.72728 7.76648 1.42682C4.4652 0.25658 1.38047 2.59684 1.03157 5.87727C0.543101 10.8208 5.83511 13.8611 9.1366 16.572C9.5082 16.8819 10.0512 16.967 10.4989 16.7815C10.7138 16.7 10.8866 16.5452 11.0616 16.4014C14.3914 13.6725 19.6522 10.5358 18.9334 5.55669C18.401 2.07868 14.7703 0.12597 11.6389 1.67763C11.0203 1.98409 10.4606 2.40932 10.0017 2.92507Z" stroke="currentColor" stroke-width="1.5" stroke-linecap="round" stroke-linejoin="round"/>
    </symbol>

    <symbol  id="filledSmallHeartIcon"  fill="none" >
        <path fill-rule="evenodd" clip-rule="evenodd" d="M19.4274 5.4804C19.1454 3.6384 18.0574 2.1004 16.4424 1.2614C14.8644 0.440397 13.0314 0.429397 11.4174 1.2294C10.8954 1.4874 10.4204 1.8164 10.0014 2.2094C9.40644 1.6534 8.69944 1.2244 7.93343 0.955397C6.30143 0.376397 4.62043 0.549397 3.20243 1.4414C1.72443 2.3734 0.727429 4.0114 0.534429 5.8274C0.0954287 10.2644 4.00343 13.2504 7.14343 15.6484C7.73143 16.0974 8.30044 16.5314 8.81644 16.9554C9.15144 17.2344 9.57744 17.3804 10.0014 17.3804C10.2324 17.3804 10.4624 17.3374 10.6764 17.2484C10.9464 17.1464 11.1484 16.9794 11.3794 16.7874C11.8544 16.3974 12.3684 16.0004 12.9004 15.5894C16.1014 13.1154 20.0854 10.0364 19.4274 5.4804Z" fill="currentColor"/>
    </symbol>

    <symbol id="shareIcon" width="48" height="48" viewBox="0 0 48 48" fill="none">
        <path fill-rule="evenodd" clip-rule="evenodd" d="M36.7606 6C39.7438 6 42.1606 8.41684 42.1606 11.3999C42.1606 14.383 39.7438 16.7999 36.7606 16.7999C33.7776 16.7999 31.3608 14.383 31.3608 11.3999C31.3608 8.41684 33.7776 6 36.7606 6Z" stroke="currentColor" stroke-width="1.5" stroke-linecap="round" stroke-linejoin="round"/>
        <path fill-rule="evenodd" clip-rule="evenodd" d="M15.1617 18.5991C18.1448 18.5991 20.5616 21.016 20.5616 23.999C20.5616 26.9822 18.1448 29.399 15.1617 29.399C12.1786 29.399 9.76172 26.9822 9.76172 23.999C9.76172 21.016 12.1786 18.5991 15.1617 18.5991Z" stroke="currentColor" stroke-width="1.5" stroke-linecap="round" stroke-linejoin="round"/>
        <path fill-rule="evenodd" clip-rule="evenodd" d="M36.7606 31.2002C39.7438 31.2002 42.1606 33.617 42.1606 36.6C42.1606 39.5812 39.7438 42 36.7606 42C33.7776 42 31.3608 39.5812 31.3608 36.6C31.3608 33.617 33.7776 31.2002 36.7606 31.2002Z" stroke="currentColor" stroke-width="1.5" stroke-linecap="round" stroke-linejoin="round"/>
        <path d="M19.8222 26.7162L32.1166 33.8812M32.0972 14.1172L19.8203 21.2802" stroke="currentColor" stroke-width="1.5" stroke-linecap="round" stroke-linejoin="round"/>
    </symbol>

    <symbol id="deleteIcon" width="24" height="24" viewBox="0 0 24 24" fill="none" >
        <path d="M19.1823 9.54688L18.5702 17.9235C18.4438 19.6563 17.001 20.9989 15.2624 20.9989H9.26941C7.53182 20.9989 6.08804 19.6563 5.96156 17.9226L5.34961 9.54688" stroke="currentColor" stroke-width="1.5" stroke-linecap="round" stroke-linejoin="round"/>
        <path d="M14.1771 12.1055L10.3555 15.927M10.3555 12.1055L14.1771 15.927" stroke="currentColor" stroke-width="1.5" stroke-linecap="round" stroke-linejoin="round"/>
        <path d="M20.5296 6.40234H4" stroke="currentColor" stroke-width="1.5" stroke-linecap="round" stroke-linejoin="round"/>
        <path d="M16.0389 6.40126L15.536 3.92524C15.39 3.37944 14.8948 3.00001 14.3305 3.00001H10.2094C9.64222 2.99807 9.14502 3.3775 8.99812 3.92524L8.5 6.40126" stroke="currentColor" stroke-width="1.5" stroke-linecap="round" stroke-linejoin="round"/>
    </symbol>

    <symbol id="chevronDownIcon" width="24" height="24" viewBox="0 0 24 24" fill="none" >
        <path d="M19 8.5L12 15.5L5 8.5" stroke="currentColor" stroke-width="1.5" stroke-linecap="round" stroke-linejoin="round"/>
    </symbol>

    <symbol id="youtubeIcon" width="48" height="48" viewBox="0 0 48 48" fill="none" >
        <path d="M37.6112 10.2437C39.3624 10.7535 40.7168 12.1897 41.1586 14.0072C42.2834 17.3659 42.2776 30.7076 41.1586 33.9164C40.7168 35.734 39.3624 37.17 37.6112 37.68C34.4644 38.8572 13.5336 38.8202 10.3889 37.68C8.67254 37.1974 7.32788 35.8274 6.84138 34.0662C5.71856 30.7582 5.72052 17.3679 6.84138 14.0831C7.28312 12.2636 8.63558 10.8294 10.3889 10.3196C13.5336 9.17728 34.4644 9.17728 37.6112 10.2437Z" stroke="currentColor" stroke-width="1.5" stroke-linecap="round" stroke-linejoin="round"/>
        <path d="M29.0382 24.8584L21.694 29.0346C21.0674 29.3906 20.289 28.9392 20.289 28.2172V19.8651C20.289 19.1432 21.0674 18.6898 21.694 19.0459L29.0382 23.222C29.6726 23.5838 29.6726 24.4984 29.0382 24.8584Z" stroke="currentColor" stroke-width="1.5" stroke-linecap="round" stroke-linejoin="round"/>
    </symbol>

    <symbol id="arrowUpRightIcon" width="24" height="24" viewBox="0 0 24 24" fill="none" >
        <path d="M8 16L16 8M16 8H10M16 8V14" stroke="currentColor" stroke-width="1.5" stroke-linecap="round" stroke-linejoin="round"/>
    </symbol>

    <svg id="playIcon" width="24" height="24" viewBox="0 0 24 24" fill="none" >
        <path fill-rule="evenodd" clip-rule="evenodd" d="M12 2.5C17.2459 2.5 21.5 6.75315 21.5 12C21.5 17.2469 17.2459 21.5 12 21.5C6.75315 21.5 2.5 17.2469 2.5 12C2.5 6.75315 6.75315 2.5 12 2.5Z" stroke="currentColor" stroke-width="1.5" stroke-linecap="round" stroke-linejoin="round"/>
        <path fill-rule="evenodd" clip-rule="evenodd" d="M15 11.9951C15 11.184 10.8425 8.58912 10.3709 9.0557C9.8993 9.52228 9.85395 14.424 10.3709 14.9346C10.8879 15.4469 15 12.8063 15 11.9951Z" stroke="currentColor" stroke-width="1.5" stroke-linecap="round" stroke-linejoin="round"/>
    </svg>

    <symbol id="userIcon" width="24" height="24" viewBox="0 0 24 24" fill="none" >
        <path d="M21.1504 12C21.1504 7.02908 17.1213 3 12.1504 3C7.17947 3 3.15039 7.02908 3.15039 12C3.15039 16.9699 7.17947 21 12.1504 21C17.1213 21 21.1504 16.9699 21.1504 12Z" stroke="currentColor" stroke-width="1.5" stroke-linecap="round" stroke-linejoin="round"/>
        <path d="M7.00195 19.3744C7.20628 17.7884 8.61709 16.0273 12.1198 16.0273C15.6614 16.0273 17.0625 17.7982 17.2571 19.4036" stroke="currentColor" stroke-width="1.5" stroke-linecap="round" stroke-linejoin="round"/>
        <path fill-rule="evenodd" clip-rule="evenodd" d="M15.4181 10.3267C15.4181 12.1471 13.943 13.6222 12.1226 13.6222C10.3022 13.6222 8.82617 12.1471 8.82617 10.3267C8.82617 8.50628 10.3022 7.03125 12.1226 7.03125C13.943 7.03125 15.4181 8.50628 15.4181 10.3267Z" stroke="currentColor" stroke-width="1.5" stroke-linecap="round" stroke-linejoin="round"/>
    </symbol>

    <symbol id="eyeIcon" width="24" height="24" viewBox="0 0 24 24" fill="none" >
        <path d="M11.998 20.0712C15.703 20.0712 19.092 17.4072 21 12.9682C19.092 8.52923 15.703 5.86523 11.998 5.86523C8.297 5.86523 4.908 8.52923 3 12.9682C4.908 17.4092 8.297 20.0712 12.002 20.0712H11.998Z" stroke="currentColor" stroke-width="1.5" stroke-linecap="round" stroke-linejoin="round"/>
        <path fill-rule="evenodd" clip-rule="evenodd" d="M15.0788 12.9735C15.0788 14.6715 13.7008 16.0495 12.0028 16.0495C10.3038 16.0495 8.92578 14.6715 8.92578 12.9735C8.92578 11.2745 10.3038 9.89648 12.0028 9.89648C13.7008 9.89648 15.0788 11.2745 15.0788 12.9735Z" stroke="currentColor" stroke-width="1.5" stroke-linecap="round" stroke-linejoin="round"/>
    </symbol>

    <symbol id="menuGridIcon" width="24" height="24" viewBox="0 0 24 24" fill="none" >
        <path d="M3.10875 4.842C3.21375 3.859 4.02775 3.103 5.01575 3.072C6.08175 2.976 7.15475 2.976 8.22075 3.072C9.21375 3.092 10.0338 3.853 10.1277 4.842C10.2727 6.02 10.2727 7.21 10.1277 8.388C10.0278 9.373 9.21075 10.13 8.22075 10.154C7.15475 10.252 6.08175 10.252 5.01575 10.154C4.02575 10.13 3.20875 9.373 3.10875 8.388C2.96375 7.21 2.96375 6.02 3.10875 4.842Z" stroke="currentColor" stroke-width="1.5" stroke-linecap="round" stroke-linejoin="round"/>
        <path d="M3.10875 15.6099C3.21475 14.6279 4.02875 13.8749 5.01575 13.8439C6.08175 13.7459 7.15375 13.7449 8.22075 13.8399C9.21375 13.8599 10.0338 14.6219 10.1277 15.6109C10.2727 16.7879 10.2727 17.9789 10.1277 19.1559C10.0307 20.1429 9.21175 20.9029 8.22075 20.9279C7.15475 21.0239 6.08175 21.0239 5.01575 20.9279C4.02375 20.9029 3.20675 20.1429 3.10875 19.1559C2.96375 17.9779 2.96375 16.7879 3.10875 15.6099Z" stroke="currentColor" stroke-width="1.5" stroke-linecap="round" stroke-linejoin="round"/>
        <path d="M13.8732 15.6099C13.9782 14.6279 14.7922 13.8749 15.7792 13.8439C16.8452 13.7459 17.9172 13.7449 18.9842 13.8399C19.9772 13.8599 20.7972 14.6219 20.8902 15.6109C21.0362 16.7879 21.0362 17.9789 20.8902 19.1559C20.7932 20.1429 19.9752 20.9029 18.9842 20.9279C17.9182 21.0239 16.8452 21.0239 15.7792 20.9279C14.7882 20.9019 13.9702 20.1429 13.8732 19.1559C13.7272 17.9779 13.7272 16.7879 13.8732 15.6099Z" stroke="currentColor" stroke-width="1.5" stroke-linecap="round" stroke-linejoin="round"/>
        <path d="M13.8732 4.842C13.9772 3.859 14.7912 3.103 15.7792 3.072C16.8452 2.976 17.9182 2.976 18.9842 3.072C19.9762 3.092 20.7972 3.854 20.8902 4.842C21.0362 6.02 21.0362 7.21 20.8902 8.388C20.7912 9.373 19.9742 10.13 18.9842 10.154C17.9182 10.252 16.8452 10.252 15.7792 10.154C14.7892 10.13 13.9722 9.373 13.8732 8.388C13.7272 7.21 13.7272 6.02 13.8732 4.842Z" stroke="currentColor" stroke-width="1.5" stroke-linecap="round" stroke-linejoin="round"/>
    </symbol>

    <symbol id="checkBadgeBlueIcon" width="24" height="24" viewBox="0 0 24 24" fill="none">
        <path fill-rule="evenodd" clip-rule="evenodd" d="M15.5837 10.5577L11.5107 14.6327C11.3697 14.7737 11.1787 14.8527 10.9797 14.8527C10.7807 14.8527 10.5897 14.7737 10.4497 14.6327L8.47273 12.6527C8.18075 12.3587 8.18074 11.8837 8.47374 11.5907C8.76775 11.2987 9.24173 11.2997 9.53474 11.5917L10.9807 13.0407L14.5227 9.49667C14.8157 9.20367 15.2907 9.20367 15.5837 9.49667C15.8767 9.78967 15.8767 10.2647 15.5837 10.5577ZM20.7037 10.0857L20.0047 9.38667C19.6857 9.06667 19.5107 8.64067 19.5107 8.18967V7.18967C19.5107 5.70067 18.2987 4.48967 16.8107 4.48967H15.8087C15.3557 4.48967 14.9307 4.31467 14.6127 3.99667L13.9017 3.28667C12.8447 2.23867 11.1327 2.24367 10.0837 3.29767L9.38673 3.99667C9.06573 4.31567 8.64075 4.49067 8.18875 4.49067H7.18774C5.71674 4.49167 4.51674 5.67567 4.48974 7.14167C4.48873 7.15767 4.48775 7.17367 4.48775 7.19067V8.18767C4.48775 8.63967 4.31275 9.06467 3.99375 9.38367L3.28574 10.0927C3.28474 10.0957 3.28175 10.0967 3.27975 10.0987C2.23475 11.1567 2.24375 12.8687 3.29675 13.9117L3.99574 14.6127C4.31374 14.9317 4.48974 15.3557 4.48974 15.8077V16.8127C4.48974 18.3007 5.69974 19.5117 7.18774 19.5117H8.18675C8.63975 19.5127 9.06474 19.6877 9.38274 20.0047L10.0957 20.7157C10.6037 21.2207 11.2777 21.4987 11.9947 21.4987H12.0067C12.7277 21.4957 13.4037 21.2117 13.9097 20.7027L14.6107 20.0027C14.9257 19.6887 15.3617 19.5087 15.8067 19.5087H16.8127C18.2977 19.5087 19.5087 18.2997 19.5117 16.8127V15.8097C19.5117 15.3587 19.6867 14.9337 20.0037 14.6147L20.7147 13.9037C21.7647 12.8477 21.7587 11.1347 20.7037 10.0857Z" fill="#007AFF"/>
    </symbol>

    <symbol id="checkBadgeOutlinedIcon" width="24" height="24" viewBox="0 0 24 24" fill="none" xmlns="http://www.w3.org/2000/svg">
        <path d="M4.99021 7.18998C4.99021 5.97527 5.97443 4.99106 7.18913 4.99009H8.18988C8.77049 4.99009 9.32679 4.75959 9.73914 4.35112L10.4384 3.65089C11.2952 2.78922 12.6879 2.78533 13.5496 3.64117L13.5505 3.64214L13.5593 3.64992L14.2595 4.35015C14.6709 4.75959 15.2282 4.98911 15.8088 4.98911H16.8115C18.0262 4.98911 19.0114 5.9743 19.0114 7.18901V8.18878C19.0114 8.77036 19.2409 9.32666 19.6503 9.73902L20.3506 10.4392C21.2122 11.2961 21.2171 12.6887 20.3613 13.5504L19.6513 14.2604C19.2419 14.6718 19.0124 15.229 19.0124 15.8087V16.8123C19.0104 18.027 18.0252 19.0093 16.8115 19.0083H15.8068C15.2262 19.0083 14.669 19.2388 14.2576 19.6483L13.5574 20.3475C12.7025 21.2102 11.3098 21.216 10.4481 20.3611L10.4452 20.3592L9.7372 19.6512C9.32581 19.2417 8.76855 19.0122 8.18794 19.0113H7.18913C5.97443 19.0113 4.99021 18.027 4.99021 16.8123V15.8067C4.99021 15.2261 4.75972 14.6698 4.35028 14.2584L3.65102 13.5582C2.78837 12.7033 2.78254 11.3126 3.63643 10.4499C3.63643 10.4499 3.63935 10.448 3.64032 10.4461L4.34833 9.73707C4.75777 9.32569 4.98827 8.76842 4.98827 8.18684V7.18998" stroke="#007AFF" stroke-width="1.5" stroke-linecap="round" stroke-linejoin="round"/>
        <path d="M9.00391 12.1222L10.9811 14.1023L15.0541 10.0273" stroke="#007AFF" stroke-width="1.5" stroke-linecap="round" stroke-linejoin="round"/>
    </symbol>

    <symbol id="roundedPlusIcon" width="48" height="48" viewBox="0 0 48 48" fill="none" >
        <path fill-rule="evenodd" clip-rule="evenodd" d="M24 6C33.9418 6 42 14.0582 42 24C42 33.9398 33.9418 42 24 42C14.0582 42 6 33.9398 6 24C6 14.0582 14.0582 6 24 6Z" stroke="currentColor" stroke-width="1.5" stroke-linecap="round" stroke-linejoin="round"/>
        <path d="M30.5978 24.004H17.3984" stroke="currentColor" stroke-width="1.5" stroke-linecap="round" stroke-linejoin="round"/>
        <path d="M24 17.4077V30.5934" stroke="currentColor" stroke-width="1.5" stroke-linecap="round" stroke-linejoin="round"/>
    </symbol>

    <symbol id="roundedArrowLeftIcon" width="40" height="40" viewBox="0 0 40 40" fill="none">
        <path fill-rule="evenodd" clip-rule="evenodd" d="M20 1.50043C9.784 1.50043 1.5 9.78243 1.5 20.0004C1.5 30.2164 9.784 38.5004 20 38.5004C30.216 38.5004 38.5 30.2164 38.5 20.0004C38.5 9.78243 30.216 1.50043 20 1.50043Z" stroke="currentColor" stroke-width="1.5" stroke-linecap="round" stroke-linejoin="round"/>
        <path d="M22.8845 13.058L15.9125 20L22.8845 26.942" stroke="currentColor" stroke-width="1.5" stroke-linecap="round" stroke-linejoin="round"/>
    </symbol>

    <symbol id="lockIcon" width="24" height="24" viewBox="0 0 24 24" fill="none" >
        <path d="M12 15.0918V17.2588" stroke="currentColor" stroke-width="1.5" stroke-linecap="round" stroke-linejoin="round"/>
        <path d="M16.4478 10.4171V8.3211C16.4176 5.8641 14.4004 3.8971 11.9442 3.9281C9.53778 3.9581 7.59168 5.8961 7.55078 8.3011V10.4171" stroke="currentColor" stroke-width="1.5" stroke-linecap="round" stroke-linejoin="round"/>
        <path d="M9.30375 21.9719H14.6956C16.2909 21.9719 17.0886 21.9719 17.7043 21.6759C18.319 21.3809 18.8148 20.8849 19.11 20.2709C19.4056 19.6549 19.4056 18.8569 19.4056 17.2619V15.1299C19.4056 13.5349 19.4056 12.7369 19.11 12.1219C18.8148 11.5069 18.319 11.0109 17.7043 10.7159C17.0886 10.4199 16.2909 10.4199 14.6956 10.4199H9.30375C7.70845 10.4199 6.91075 10.4199 6.29515 10.7159C5.68035 11.0109 5.18455 11.5069 4.88935 12.1219C4.59375 12.7369 4.59375 13.5349 4.59375 15.1299V17.2619C4.59375 18.8569 4.59375 19.6549 4.88935 20.2709C5.18455 20.8849 5.68035 21.3809 6.29515 21.6759C6.91075 21.9719 7.70845 21.9719 9.30375 21.9719Z" stroke="currentColor" stroke-width="1.5" stroke-linecap="round" stroke-linejoin="round"/>
    </symbol>

    <symbol id="errorIconRed" width="16" height="24" viewBox="0 0 16 24" fill="none" >
        <circle cx="8" cy="12" r="8" fill="#E72447"/>
        <path d="M7.488 14.48L7.28 6.576H8.816L8.608 14.48H7.488ZM8.032 18.16C7.73333 18.16 7.488 18.0587 7.296 17.856C7.104 17.6533 7.008 17.4027 7.008 17.104C7.008 16.8053 7.104 16.56 7.296 16.368C7.488 16.1653 7.73333 16.064 8.032 16.064C8.34133 16.064 8.592 16.1653 8.784 16.368C8.976 16.56 9.072 16.8053 9.072 17.104C9.072 17.4027 8.976 17.6533 8.784 17.856C8.592 18.0587 8.34133 18.16 8.032 18.16Z" fill="#FAFAFA"/>
    </symbol>

    <symbol id="roundedSmallMinusIcon" width="24" height="24" viewBox="0 0 24 24" fill="none" >
        <path fill-rule="evenodd" clip-rule="evenodd" d="M12 3C16.9709 3 21 7.02908 21 12C21 16.9699 16.9709 21 12 21C7.02908 21 3 16.9699 3 12C3 7.02908 7.02908 3 12 3Z" stroke="currentColor" stroke-width="1.5" stroke-linecap="round" stroke-linejoin="round"/>
        <path d="M15.2989 12.002H8.69922" stroke="currentColor" stroke-width="1.5" stroke-linecap="round" stroke-linejoin="round"/>
    </symbol>

    <symbol id="roundedSmallPlusIcon" width="24" height="24" viewBox="0 0 24 24" fill="none">
        <path fill-rule="evenodd" clip-rule="evenodd" d="M12 3C16.9709 3 21 7.02908 21 12C21 16.9699 16.9709 21 12 21C7.02908 21 3 16.9699 3 12C3 7.02908 7.02908 3 12 3Z" stroke="currentColor" stroke-width="1.5" stroke-linecap="round" stroke-linejoin="round"/>
        <path d="M15.2989 12.002H8.69922" stroke="currentColor" stroke-width="1.5" stroke-linecap="round" stroke-linejoin="round"/>
        <path d="M12 8.70386V15.2967" stroke="currentColor" stroke-width="1.5" stroke-linecap="round" stroke-linejoin="round"/>
    </symbol>

    <symbol id="navigateMarkerIcon" width="24" height="24" viewBox="0 0 24 24" fill="none" >
        <path fill-rule="evenodd" clip-rule="evenodd" d="M11.9996 3C16.9703 3 20.9992 7.02891 20.9992 11.9996C20.9992 16.9703 16.9703 20.9992 11.9996 20.9992C7.02891 20.9992 3 16.9703 3 11.9996C3 7.02891 7.02891 3 11.9996 3Z" stroke="currentColor" stroke-width="1.5" stroke-linecap="round" stroke-linejoin="round"/>
        <path d="M21.0002 11.9982H17.4004" stroke="currentColor" stroke-width="1.5" stroke-linecap="round" stroke-linejoin="round"/>
        <path d="M6.59985 11.9982H3" stroke="currentColor" stroke-width="1.5" stroke-linecap="round" stroke-linejoin="round"/>
        <path d="M12 6.59985V3" stroke="currentColor" stroke-width="1.5" stroke-linecap="round" stroke-linejoin="round"/>
        <path d="M12 20.9983V17.3984" stroke="currentColor" stroke-width="1.5" stroke-linecap="round" stroke-linejoin="round"/>
    </symbol>

    <symbol id="downloadIcon" width="24" height="24" viewBox="0 0 24 24" fill="none" >
        <path d="M11.999 15.5218V5M16.3377 11.168L11.9976 15.5222L7.66211 11.168" stroke="currentColor" stroke-width="1.5" stroke-linecap="round" stroke-linejoin="round"/>
        <path d="M6.73633 19H17.2619" stroke="currentColor" stroke-width="1.5" stroke-linecap="round" stroke-linejoin="round"/>
    </symbol>

    <symbol id="navigationIcon" width="24" height="24" viewBox="0 0 24 24" fill="none" >
        <path fill-rule="evenodd" clip-rule="evenodd" d="M14.7366 10.8064C14.7366 9.43255 13.6234 8.31934 12.2505 8.31934C10.8767 8.31934 9.76349 9.43255 9.76349 10.8064C9.76349 12.1792 10.8767 13.2924 12.2505 13.2924C13.6234 13.2924 14.7366 12.1792 14.7366 10.8064Z" stroke="currentColor" stroke-width="1.5" stroke-linecap="round" stroke-linejoin="round"/>
        <path fill-rule="evenodd" clip-rule="evenodd" d="M12.2496 21.25C12.2496 21.25 4.97373 16.5108 4.7904 10.5973C4.66167 6.44514 8.12944 2.75012 12.2496 2.75012C16.3697 2.75012 19.8366 6.44508 19.7097 10.5973C19.5253 16.632 12.2496 21.25 12.2496 21.25Z" stroke="currentColor" stroke-width="1.5" stroke-linecap="round"/>
    </symbol>

    <symbol id="editIcon" width="20" height="20" viewBox="0 0 20 20" fill="none" >
        <path d="M11.748 18.4429H19.0006" stroke="currentColor" stroke-width="1.5" stroke-linecap="round" stroke-linejoin="round"/>
        <path fill-rule="evenodd" clip-rule="evenodd" d="M10.78 1.79479C11.5557 0.867787 12.95 0.731856 13.8962 1.49173C13.9485 1.53296 15.6295 2.83879 15.6295 2.83879C16.669 3.46719 16.992 4.80311 16.3494 5.82259C16.3153 5.87718 6.81195 17.7645 6.81195 17.7645C6.49578 18.1589 6.01583 18.3918 5.50291 18.3973L1.86353 18.443L1.04353 14.9723C0.928662 14.4843 1.04353 13.9718 1.3597 13.5773L10.78 1.79479Z" stroke="currentColor" stroke-width="1.5" stroke-linecap="round" stroke-linejoin="round"/>
        <path d="M9.02148 4.00085L14.4737 8.18798" stroke="currentColor" stroke-width="1.5" stroke-linecap="round" stroke-linejoin="round"/>
    </symbol>

    <symbol id="arrowRightIcon" width="24" height="24" viewBox="0 0 24 24" fill="none" >
        <path d="M19.75 11.7257L4.75 11.7257" stroke="currentColor" stroke-width="1.5" stroke-linecap="round" stroke-linejoin="round"/>
        <path d="M13.7012 5.7013L19.7512 11.7253L13.7012 17.7503" stroke="currentColor" stroke-width="1.5" stroke-linecap="round" stroke-linejoin="round"/>
    </symbol>

    <symbol id="hideIcon" width="20" height="18" viewBox="0 0 20 18" fill="none" >
        <path d="M7.76094 11.3667C7.18594 10.7927 6.83594 10.0127 6.83594 9.13768C6.83594 7.38468 8.24794 5.97168 9.99994 5.97168C10.8669 5.97168 11.6649 6.32268 12.2299 6.89668" stroke="currentColor" stroke-width="1.5" stroke-linecap="round" stroke-linejoin="round"/>
        <path d="M13.1054 9.69885C12.8734 10.9889 11.8574 12.0069 10.5684 12.2409" stroke="currentColor" stroke-width="1.5" stroke-linecap="round" stroke-linejoin="round"/>
        <path d="M4.655 14.4722C3.068 13.2262 1.724 11.4062 0.75 9.13723C1.734 6.85823 3.087 5.02823 4.684 3.77223C6.271 2.51623 8.102 1.83423 10 1.83423C11.909 1.83423 13.739 2.52623 15.336 3.79123" stroke="currentColor" stroke-width="1.5" stroke-linecap="round" stroke-linejoin="round"/>
        <path d="M17.4487 5.99072C18.1367 6.90472 18.7417 7.95972 19.2507 9.13672C17.2837 13.6937 13.8078 16.4387 10.0008 16.4387C9.13775 16.4387 8.28675 16.2987 7.46875 16.0257" stroke="currentColor" stroke-width="1.5" stroke-linecap="round" stroke-linejoin="round"/>
        <path d="M17.8873 1.24951L2.11328 17.0235" stroke="currentColor" stroke-width="1.5" stroke-linecap="round" stroke-linejoin="round"/>
    </symbol>

    <symbol id="medalIcon" width="48" height="48" viewBox="0 0 48 48" fill="none" >
        <path fill-rule="evenodd" clip-rule="evenodd" d="M23.0882 6.36989C29.5488 8.00061 33.4622 14.5605 31.8314 21.0192C30.2006 27.4798 23.6408 31.3932 17.1821 29.7624C10.7215 28.1316 6.80622 21.5718 8.4389 15.1131C10.0696 8.65251 16.6275 4.73917 23.0882 6.36989Z" stroke="currentColor" stroke-width="1.5" stroke-linecap="round" stroke-linejoin="round"/>
        <path d="M9.70582 24.086L6.58838 36.5732C6.28674 37.7836 7.4193 38.8616 8.61218 38.5016L14.5999 36.6938C15.1681 36.5226 15.785 36.6782 16.2034 37.0986L20.611 41.5258C21.4926 42.4112 23.0026 41.9966 23.3082 40.7862L26.4606 28.299" stroke="currentColor" stroke-width="1.5" stroke-linecap="round" stroke-linejoin="round"/>
        <path d="M38.8487 27.4844L41.4185 37.7912C41.6813 38.7934 40.7375 39.6808 39.7567 39.3772L34.8101 37.8866C34.3371 37.7542 33.8273 37.8866 33.4887 38.2272L29.8633 41.8894" stroke="currentColor" stroke-width="1.5" stroke-linecap="round" stroke-linejoin="round"/>
        <path d="M30.8828 12.6094C35.0744 12.874 38.8126 15.8008 39.8888 20.0858C40.5504 22.6914 40.1144 25.334 38.8496 27.4882C37.5672 29.7534 35.3956 31.4892 32.677 32.1684" stroke="currentColor" stroke-width="1.5" stroke-linecap="round" stroke-linejoin="round"/>
    </symbol>

    <symbol id="folderOpenIcon" width="48" height="48" viewBox="0 0 48 48" fill="none" >
        <path d="M16.8003 35.562C16.1971 38.189 13.1479 40.847 9.87109 38.6832C9.87109 38.6832 11.9928 40.5688 16.3022 40.5688H35.1012C37.448 40.5688 39.4774 38.9324 39.9756 36.6382L42.3262 25.0778C43.0248 21.4564 40.6352 19.7383 37.4538 19.7383H24.255C21.914 19.7383 19.8865 21.367 19.3844 23.6534L16.8003 35.562Z" stroke="currentColor" stroke-width="1.5" stroke-linecap="round" stroke-linejoin="round"/>
        <path d="M16.3031 40.5698C10.1016 40.5698 6.44922 36.9252 6.44922 30.7392V17.2563C6.44922 11.0782 8.722 7.43359 14.9079 7.43359H18.3657C19.6072 7.43359 20.7748 8.01929 21.518 9.01169L23.0962 11.1113C23.8434 12.1017 25.0128 12.6855 26.2542 12.6894H29.173C34.5184 12.6894 36.9566 15.0342 37.5266 19.7237" stroke="currentColor" stroke-width="1.5" stroke-linecap="round" stroke-linejoin="round"/>
    </symbol>

    <symbol id="worldIcon" width="48" height="48" viewBox="0 0 48 48" fill="none" >
        <path fill-rule="evenodd" clip-rule="evenodd" d="M24.7266 6C34.6684 6 42.7266 14.0582 42.7266 24C42.7266 33.9418 34.6684 42 24.7266 42C14.7847 42 6.72656 33.9418 6.72656 24C6.72656 14.0582 14.7847 6 24.7266 6Z" stroke="currentColor" stroke-width="1.5" stroke-linecap="round" stroke-linejoin="round"/>
        <path fill-rule="evenodd" clip-rule="evenodd" d="M24.7252 6C28.4264 6 31.4252 14.0582 31.4252 24C31.4252 33.9418 28.4264 42 24.7252 42C21.024 42 18.0254 33.9418 18.0254 24C18.0254 14.0582 21.024 6 24.7252 6Z" stroke="currentColor" stroke-width="1.5" stroke-linecap="round" stroke-linejoin="round"/>
        <path d="M8.75586 15.6875C11.7896 16.6235 15.086 17.2598 18.4759 17.6159C22.5954 18.0479 26.8474 18.0479 30.9864 17.6159C34.3762 17.2598 37.6726 16.6235 40.7064 15.6875" stroke="currentColor" stroke-width="1.5" stroke-linecap="round" stroke-linejoin="round"/>
        <path d="M40.7064 32.3072C37.6726 31.3712 34.3762 30.7348 30.9864 30.3786C26.8474 29.9466 22.5954 29.9466 18.4759 30.3786C15.086 30.7348 11.7896 31.3712 8.75586 32.3072" stroke="currentColor" stroke-width="1.5" stroke-linecap="round" stroke-linejoin="round"/>
    </symbol>

    <symbol id="likeDislikeIcon" width="48" height="48" viewBox="0 0 48 48" fill="none" >
        <path d="M17.8356 13.5294C19.2662 9.0845 18.5318 7.31398 17.1132 7.0224C16.5713 6.91098 16.3463 6.9167 15.9177 7.33412C14.5304 8.96988 12.1876 11.5306 10.9094 12.9169C10.5791 13.2751 10.414 13.4542 10.2969 13.6563C10.188 13.8443 10.11 14.044 10.0626 14.2561C10.0117 14.484 10.0117 14.7263 10.0117 15.211V21.1442C10.0117 22.5616 10.0117 23.2704 10.2832 23.8136C10.5324 24.3124 10.9367 24.7166 11.4353 24.9658C11.9786 25.2372 12.6874 25.2372 14.1048 25.2372H20.305C21.4466 25.2372 22.0174 25.2372 22.496 25.043C22.9366 24.864 23.321 24.5696 23.6084 24.1908C23.9206 23.7792 24.0694 23.2282 24.3666 22.126L24.8906 20.1832C25.452 18.1019 25.7326 17.0612 25.498 16.2379C25.2834 15.4848 24.7906 14.8415 24.1194 14.4382C23.3856 13.9972 22.3078 13.9972 20.152 13.9972H18.1717C17.8015 13.9972 17.731 13.8542 17.8356 13.5294Z" stroke="currentColor" stroke-width="1.5" stroke-linecap="round" stroke-linejoin="round"/>
        <path d="M30.1607 29.334C28.7301 24.8892 29.4645 23.1186 30.8829 22.827C31.4249 22.7156 31.6499 22.7214 32.0785 23.1388C33.4659 24.7746 35.8087 27.3352 37.0867 28.7216C37.4171 29.0798 37.5821 29.259 37.6993 29.461C37.8081 29.649 37.8863 29.8488 37.9335 30.0608C37.9845 30.2886 37.9845 30.531 37.9845 31.0156V36.9488C37.9845 38.3664 37.9845 39.075 37.7131 39.6184C37.4639 40.117 37.0595 40.5214 36.5609 40.7704C36.0175 41.042 35.3089 41.042 33.8913 41.042H27.6913C26.5497 41.042 25.9789 41.042 25.5001 40.8476C25.0595 40.6688 24.6753 40.3744 24.3877 39.9956C24.0755 39.584 23.9269 39.0328 23.6295 37.9306L23.1055 35.9878C22.5443 33.9066 22.2635 32.8658 22.4981 32.0426C22.7129 31.2896 23.2057 30.6462 23.8767 30.2428C24.6107 29.8018 25.6885 29.8018 27.8441 29.8018H29.8245C30.1947 29.8018 30.2651 29.659 30.1607 29.334Z" stroke="currentColor" stroke-width="1.5" stroke-linecap="round" stroke-linejoin="round"/>
        <path d="M6 24.797V14.9531" stroke="currentColor" stroke-width="1.5" stroke-linecap="round" stroke-linejoin="round"/>
        <path d="M41.9961 40.6018V30.7578" stroke="currentColor" stroke-width="1.5" stroke-linecap="round" stroke-linejoin="round"/>
        <path d="M38.1719 15.1172L40.1955 13.3906" stroke="currentColor" stroke-width="1.5" stroke-linecap="round" stroke-linejoin="round"/>
        <path d="M10.0312 33.7188L8.00781 35.4454" stroke="currentColor" stroke-width="1.5" stroke-linecap="round" stroke-linejoin="round"/>
        <path d="M33.1562 11.4584L34.0518 8.95377" stroke="currentColor" stroke-width="1.5" stroke-linecap="round" stroke-linejoin="round"/>
        <path d="M15.0469 37.3776L14.1514 39.8822" stroke="currentColor" stroke-width="1.5" stroke-linecap="round" stroke-linejoin="round"/>
    </symbol>

    <symbol id="keysIcon" width="24" height="24" viewBox="0 0 24 24" fill="none">
        <path d="M7.73318 7.02539C10.0762 7.02539 11.9742 8.92436 11.9742 11.2664C11.9742 12.9974 10.9362 14.4834 9.4502 15.1424V19.5644C9.4502 20.5134 8.68118 21.2814 7.73318 21.2814C6.78518 21.2814 6.0152 20.5134 6.0152 19.5644L6.0162 15.1424C4.5312 14.4834 3.49219 12.9974 3.49219 11.2664C3.49219 8.92436 5.39118 7.02539 7.73318 7.02539Z" stroke="currentColor" stroke-width="1.5" stroke-linecap="round" stroke-linejoin="round"/>
        <path d="M9.44907 16.5332H8.53906M9.44907 18.5222H8.53906" stroke="currentColor" stroke-width="1.5" stroke-linecap="round" stroke-linejoin="round"/>
        <path d="M10.9082 8.44739C11.0962 8.19539 11.3312 7.96137 11.6002 7.75537C12.0062 7.44837 12.4562 7.24139 12.9242 7.12439C13.2032 7.06139 13.4912 7.02539 13.7792 7.02539C14.8862 7.02539 15.9752 7.5294 16.6862 8.4754L19.7822 12.5874C20.9792 14.1904 20.6642 16.4674 19.0622 17.6734C17.4602 18.8704 15.1832 18.5554 13.9762 16.9534L11.3582 13.4614" stroke="currentColor" stroke-width="1.5" stroke-linecap="round" stroke-linejoin="round"/>
        <path d="M12.9232 7.1272V5.95721C12.9232 4.48121 11.7261 3.2832 10.2411 3.2832C8.76415 3.2832 7.57617 4.48121 7.57617 5.95721V10.9972" stroke="currentColor" stroke-width="1.5" stroke-linecap="round" stroke-linejoin="round"/>
    </symbol>

    <symbol id="homeIcon" width="24" height="24" viewBox="0 0 24 24" fill="none" >
        <path fill-rule="evenodd" clip-rule="evenodd" d="M17.2159 21H6.78462C4.94959 21 3.46289 19.5123 3.46289 17.6783V10.5045C3.46289 9.6133 3.86376 8.76973 4.55457 8.20638L10.1287 3.66551C11.2185 2.77816 12.782 2.77816 13.8718 3.66551L19.4459 8.20638C20.1367 8.76973 20.5376 9.6133 20.5376 10.5045V17.6783C20.5376 19.5123 19.0509 21 17.2159 21Z" stroke="currentColor" stroke-width="1.5" stroke-linecap="round" stroke-linejoin="round"/>
    </symbol>

    <symbol id="boardDocumentIcon" width="24" height="24" viewBox="0 0 24 24" fill="none" >
        <path d="M7.78216 3H16.2169C19.165 3 21 5.08119 21 8.02638V15.9736C21 18.9188 19.165 21 16.2159 21H7.78216C4.83405 21 3 18.9188 3 15.9736V8.02638C3 5.08119 4.84281 3 7.78216 3Z" stroke="currentColor" stroke-width="1.5" stroke-linecap="round" stroke-linejoin="round"/>
        <path d="M7.88672 3V21" stroke="currentColor" stroke-width="1.5" stroke-linecap="round" stroke-linejoin="round"/>
        <path d="M11.9766 7.65625H15.991M11.9766 12.0014H15.991M11.9766 16.3465H15.991" stroke="currentColor" stroke-width="1.5" stroke-linecap="round" stroke-linejoin="round"/>
    </symbol>

    <symbol id="emailIcon" width="24" height="24" viewBox="0 0 24 24" fill="none" >
        <path d="M21 15.0944C21 17.8596 19.1552 20.1072 16.4183 20.1004H7.58173C4.84476 20.1072 3 17.8596 3 15.0944V8.91315C3 6.15088 4.84476 3.90039 7.58173 3.90039H16.4183C19.1552 3.90039 21 6.15088 21 8.91315V15.0944Z" stroke="currentColor" stroke-width="1.5" stroke-linecap="round" stroke-linejoin="round"/>
        <path d="M17.3124 9.16602L13.3135 12.4177C12.5604 13.0161 11.4931 13.0161 10.74 12.4177L6.70703 9.16602" stroke="currentColor" stroke-width="1.5" stroke-linecap="round" stroke-linejoin="round"/>
    </symbol>

    <symbol id="cameraIcon" width="24" height="24" viewBox="0 0 24 24" fill="none" >
        <path fill-rule="evenodd" clip-rule="evenodd" d="M13.9654 4.13672C14.7905 4.13672 15.5455 4.59207 15.9347 5.31888C16.1877 5.79272 16.465 6.27142 16.643 6.46699C16.9816 6.82212 17.4467 7.03229 17.9381 7.0498C19.6291 7.0498 21 8.42072 21 10.1117V10.1137V15.756C21 18.024 19.1611 19.8629 16.8941 19.8629H7.10595C4.83795 19.8629 3 18.024 3 15.756V10.1137C3.00195 8.42364 4.37189 7.05564 6.06195 7.05564C6.5533 7.03618 7.01741 6.82699 7.35697 6.47088C7.53892 6.27045 7.83178 5.77326 8.09935 5.28969C8.49243 4.57845 9.23968 4.13672 10.0531 4.13672H13.9654Z" stroke="currentColor#31393D" stroke-width="1.5" stroke-linecap="round" stroke-linejoin="round"/>
        <path d="M17.1738 9.82812V9.88651" stroke="currentColor" stroke-width="1.5" stroke-linecap="round" stroke-linejoin="round"/>
        <path fill-rule="evenodd" clip-rule="evenodd" d="M15.0924 13.1048C15.0924 11.3972 13.7079 10.0117 11.9993 10.0117C10.2908 10.0117 8.90625 11.3972 8.90625 13.1048C8.90625 14.8133 10.2908 16.1979 11.9993 16.1979C13.7079 16.1979 15.0924 14.8133 15.0924 13.1048Z" stroke="currentColor" stroke-width="1.5" stroke-linecap="round" stroke-linejoin="round"/>
    </symbol>

    <symbol id="bankCardIcon" width="24" height="24" viewBox="0 0 24 24" fill="none" >
        <path fill-rule="evenodd" clip-rule="evenodd" d="M17.0356 4.53906H6.96543C4.52936 4.53906 3.00195 6.26396 3.00195 8.70489V15.2922C3.00195 17.7341 4.52158 19.458 6.96543 19.458H17.0346C19.4795 19.458 21.0001 17.7341 21.0001 15.2922V8.70489C21.0001 6.26396 19.4795 4.53906 17.0356 4.53906Z" stroke="currentColor" stroke-width="1.5" stroke-linecap="round" stroke-linejoin="round"/>
        <path d="M3 9.83398H20.9981" stroke="currentColor" stroke-width="1.5" stroke-linecap="round" stroke-linejoin="round"/>
        <path d="M6.89844 15.1699H8.32662" stroke="currentColor" stroke-width="1.5" stroke-linecap="round" stroke-linejoin="round"/>
        <path d="M10.7832 15.1699H12.2114" stroke="currentColor" stroke-width="1.5" stroke-linecap="round" stroke-linejoin="round"/>
    </symbol>

    <symbol id="logoutIcon" width="24" height="24" viewBox="0 0 24 24" fill="none" >
        <path d="M15.0155 7.38948V6.45648C15.0155 4.42148 13.3655 2.77148 11.3305 2.77148H6.45548C4.42148 2.77148 2.77148 4.42148 2.77148 6.45648V17.5865C2.77148 19.6215 4.42148 21.2715 6.45548 21.2715H11.3405C13.3695 21.2715 15.0155 19.6265 15.0155 17.5975V16.6545" stroke="currentColor" stroke-width="1.5" stroke-linecap="round" stroke-linejoin="round"/>
        <path d="M21.8086 12.0215H9.76758" stroke="currentColor" stroke-width="1.5" stroke-linecap="round" stroke-linejoin="round"/>
        <path d="M18.8809 9.10645L21.8089 12.0214L18.8809 14.9374" stroke="currentColor" stroke-width="1.5" stroke-linecap="round" stroke-linejoin="round"/>
    </symbol>

    <symbol id="euroCurrencyIcon" width="24" height="24" viewBox="0 0 24 24" fill="none" >
        <path d="M15.7466 18.0578C13.4127 18.1483 11.2217 16.9325 10.0646 14.9027C9.0696 13.1397 9.0696 10.9853 10.0646 9.2223C11.2217 7.1933 13.4127 5.97669 15.7466 6.06722" stroke="currentColor" stroke-width="1.5" stroke-linecap="round" stroke-linejoin="round"/>
        <path d="M8.25195 13.8242H15.2482" stroke="currentColor" stroke-width="1.5" stroke-linecap="round" stroke-linejoin="round"/>
        <path d="M8.25195 10.3027H15.2482" stroke="currentColor" stroke-width="1.5" stroke-linecap="round" stroke-linejoin="round"/>
    </symbol>

    <symbol id="buildingsOfficeIcon" width="24" height="24" viewBox="0 0 24 24" fill="none" >
        <path d="M3.4707 19.5078H21.4707" stroke="currentColor" stroke-width="1.5" stroke-linecap="round" stroke-linejoin="round"/>
        <path d="M8.30664 8.92188H9.17064M8.30664 12.2446H9.17064M8.30664 15.5674H9.17064" stroke="currentColor" stroke-width="1.5" stroke-linecap="round" stroke-linejoin="round"/>
        <path d="M16.2461 13.3516H17.1101M16.2461 16.6743H17.1101" stroke="currentColor" stroke-width="1.5" stroke-linecap="round" stroke-linejoin="round"/>
        <path d="M12.7303 19.511V6.37003C12.7303 5.33284 11.8897 4.49219 10.8525 4.49219H6.62393C5.58674 4.49219 4.74609 5.33284 4.74609 6.37003V19.511" stroke="currentColor" stroke-width="1.5" stroke-linecap="round" stroke-linejoin="round"/>
        <path d="M20.2856 19.509V12.1825C20.2856 11.1453 19.445 10.3047 18.4078 10.3047H12.7305V19.509" stroke="currentColor" stroke-width="1.5" stroke-linecap="round" stroke-linejoin="round"/>
    </symbol>

    <symbol id="calendarIcon" width="24" height="24" viewBox="0 0 24 24" fill="none">
        <path d="M4.40234 9.66418H20.6057" stroke="currentColor" stroke-width="1.5" stroke-linecap="round" stroke-linejoin="round"/>
        <path d="M4.41162 15.3312H20.6052" stroke="currentColor" stroke-width="1.5" stroke-linecap="round" stroke-linejoin="round"/>
        <path d="M16.1443 3V5.96163" stroke="currentColor" stroke-width="1.5" stroke-linecap="round" stroke-linejoin="round"/>
        <path d="M8.87378 3V5.96163" stroke="currentColor" stroke-width="1.5" stroke-linecap="round" stroke-linejoin="round"/>
        <path fill-rule="evenodd" clip-rule="evenodd" d="M16.318 4.42188H8.69789C6.0544 4.42188 4.4043 5.89393 4.4043 8.59968V16.7451C4.4043 19.4937 6.0544 20.9998 8.69789 20.9998H16.3102C18.9614 20.9998 20.6038 19.52 20.6038 16.8133V8.59968C20.6115 5.89393 18.9692 4.42188 16.318 4.42188Z" stroke="currentColor" stroke-width="1.5" stroke-linecap="round" stroke-linejoin="round"/>
        <path d="M9.80493 9.66406V20.9998" stroke="currentColor" stroke-width="1.5" stroke-linecap="round" stroke-linejoin="round"/>
        <path d="M15.2034 9.66406V20.9998" stroke="currentColor" stroke-width="1.5" stroke-linecap="round" stroke-linejoin="round"/>
    </symbol>

    <symbol id="stairsIcon" width="24" height="24" viewBox="0 0 24 24" fill="none" >
        <path d="M19.583 4.0777H16.4046C16.1743 4.0777 15.9876 4.26438 15.9876 4.49466V7.63847C15.9876 7.86876 15.8009 8.05544 15.5707 8.05544H12.3922C12.1619 8.05544 11.9752 8.24212 11.9752 8.4724V11.7488C11.9752 11.9791 11.7886 12.1658 11.5583 12.1658H8.37981C8.14953 12.1658 7.96285 12.3524 7.96285 12.5827V15.6602C7.96285 15.8905 7.77617 16.0772 7.54588 16.0772H4.41696C4.18668 16.0772 4 16.2639 4 16.4942V19.5054C4 19.7357 4.18668 19.9224 4.41696 19.9224H19.583C19.8133 19.9224 20 19.7357 20 19.5054V4.49466C20 4.26438 19.8133 4.0777 19.583 4.0777Z" stroke="currentColor" stroke-width="1.5" stroke-linecap="round" stroke-linejoin="round"/>
    </symbol>

    <symbol id="homeM2Icon" width="24" height="24" viewBox="0 0 24 24" fill="none" >
        <path fill-rule="evenodd" clip-rule="evenodd" d="M17.2159 21H6.78462C4.94959 21 3.46289 19.5123 3.46289 17.6783V10.5045C3.46289 9.6133 3.86376 8.76973 4.55457 8.20638L10.1287 3.66551C11.2185 2.77816 12.782 2.77816 13.8718 3.66551L19.4459 8.20638C20.1367 8.76973 20.5376 9.6133 20.5376 10.5045V17.6783C20.5376 19.5123 19.0509 21 17.2159 21Z" stroke="currentColor" stroke-width="1.5" stroke-linecap="round" stroke-linejoin="round"/>
        <path d="M7.528 16V12.2H8.248V16H7.528ZM10.096 16V13.704C10.096 13.4213 10.008 13.2 9.832 13.04C9.66133 12.8747 9.44533 12.792 9.184 12.792C9.008 12.792 8.85067 12.8293 8.712 12.904C8.57333 12.9787 8.46133 13.0827 8.376 13.216C8.29067 13.3493 8.248 13.5093 8.248 13.696L7.952 13.552C7.952 13.264 8.01333 13.0133 8.136 12.8C8.264 12.5867 8.43733 12.4213 8.656 12.304C8.87467 12.1813 9.12 12.12 9.392 12.12C9.65867 12.12 9.89867 12.1787 10.112 12.296C10.3307 12.4133 10.5013 12.5787 10.624 12.792C10.752 13.0053 10.816 13.2587 10.816 13.552V16H10.096ZM12.664 16V13.704C12.664 13.4213 12.576 13.2 12.4 13.04C12.2293 12.8747 12.016 12.792 11.76 12.792C11.584 12.792 11.424 12.8293 11.28 12.904C11.1413 12.9787 11.0293 13.0827 10.944 13.216C10.8587 13.3493 10.816 13.5093 10.816 13.696L10.408 13.552C10.424 13.2587 10.5013 13.008 10.64 12.8C10.784 12.5867 10.968 12.4213 11.192 12.304C11.416 12.1813 11.6613 12.12 11.928 12.12C12.2053 12.12 12.4533 12.1787 12.672 12.296C12.8907 12.4133 13.064 12.5787 13.192 12.792C13.3253 13.0053 13.392 13.2613 13.392 13.56V16H12.664ZM14.1318 12.904L15.2358 11.792C15.3424 11.6853 15.4118 11.6 15.4438 11.536C15.4811 11.4667 15.4998 11.3947 15.4998 11.32C15.4998 11.208 15.4624 11.12 15.3878 11.056C15.3184 10.9867 15.2251 10.952 15.1078 10.952C15.0011 10.952 14.9024 10.984 14.8118 11.048C14.7264 11.1067 14.6384 11.2027 14.5478 11.336L14.1158 10.952C14.2384 10.76 14.3878 10.6213 14.5638 10.536C14.7398 10.4453 14.9371 10.4 15.1558 10.4C15.4598 10.4 15.6998 10.48 15.8758 10.64C16.0518 10.8 16.1398 11.0187 16.1398 11.296C16.1398 11.4613 16.1051 11.6107 16.0358 11.744C15.9718 11.8773 15.8544 12.024 15.6838 12.184L14.9238 12.928L14.1318 12.904ZM14.1318 13.264V12.904L14.6758 12.728H16.2038V13.264H14.1318Z" fill="currentColor"/>
    </symbol>

    <symbol id="doubleBedIcon" width="24" height="24" viewBox="0 0 24 24" fill="none" >
        <path d="M18.7871 12.119V7.18486C18.7871 6.52936 18.7871 6.20161 18.6925 5.93888C18.531 5.49021 18.1778 5.13698 17.7291 4.97545C17.4664 4.88086 17.1386 4.88086 16.4831 4.88086H7.51884C6.86335 4.88086 6.5356 4.88086 6.27286 4.97545C5.8242 5.13698 5.47096 5.49021 5.30943 5.93888C5.21484 6.20161 5.21484 6.52936 5.21484 7.18486V12.119" stroke="currentColor" stroke-width="1.5" stroke-linecap="round" stroke-linejoin="round"/>
        <path d="M14.002 9.58105H15.979" stroke="currentColor" stroke-width="1.5" stroke-linecap="round" stroke-linejoin="round"/>
        <path d="M8 9.58105H9.97709" stroke="currentColor" stroke-width="1.5" stroke-linecap="round" stroke-linejoin="round"/>
        <path d="M21 19.1191V14.4231C21 13.7676 21 13.4399 20.9054 13.1772C20.7439 12.7285 20.3906 12.3753 19.942 12.2137C19.6792 12.1191 19.3515 12.1191 18.696 12.1191H5.304C4.6485 12.1191 4.32076 12.1191 4.05802 12.2137C3.60935 12.3753 3.25612 12.7285 3.09459 13.1772C3 13.4399 3 13.7676 3 14.4231V19.1191" stroke="currentColor" stroke-width="1.5" stroke-linecap="round" stroke-linejoin="round"/>
        <path d="M3 17.8809H21" stroke="currentColor" stroke-width="1.5" stroke-linecap="round" stroke-linejoin="round"/>
    </symbol>

    <symbol id="toiletIcon" width="24" height="24" viewBox="0 0 24 24" fill="none" >
        <path d="M17.8936 12.6348V13.5153C17.8936 16.2143 15.7054 18.4035 13.0054 18.4035C10.3064 18.4035 8.11719 16.2143 8.11719 13.5153V12.6348" stroke="currentColor" stroke-width="1.5" stroke-linecap="round" stroke-linejoin="round"/>
        <path d="M7.80664 21H18.2067" stroke="currentColor" stroke-width="1.5" stroke-linecap="round" stroke-linejoin="round"/>
        <path d="M10.3255 17.6821C10.2798 18.621 10.0754 20.0105 9.34961 21" stroke="currentColor" stroke-width="1.5" stroke-linecap="round" stroke-linejoin="round"/>
        <path d="M15.668 17.6821C15.7137 18.621 15.918 20.0105 16.6439 21" stroke="currentColor" stroke-width="1.5" stroke-linecap="round" stroke-linejoin="round"/>
        <path d="M6.64062 12.6348H19.335" stroke="currentColor" stroke-width="1.5" stroke-linecap="round" stroke-linejoin="round"/>
        <path d="M17.8936 5.49665V9.94727H8.11719V5.49665C8.11719 4.11795 9.23513 3 10.6138 3H15.397C16.7757 3 17.8936 4.11795 17.8936 5.49665Z" stroke="currentColor" stroke-width="1.5" stroke-linecap="round" stroke-linejoin="round"/>
        <path d="M10.791 5.85156H11.8662" stroke="currentColor" stroke-width="1.5" stroke-linecap="round" stroke-linejoin="round"/>
    </symbol>

    <symbol id="flowerIcon" width="24" height="24" viewBox="0 0 24 24" fill="none">
        <path d="M15.0763 16.5774C15.0973 16.6194 15.1183 16.6614 15.1393 16.6924C15.7573 17.8764 15.5683 19.3534 14.5843 20.3384C13.3683 21.5534 11.3883 21.5534 10.1733 20.3384C9.21025 19.3644 9.02125 17.9084 9.59725 16.7444C9.63925 16.6614 9.68125 16.5774 9.73325 16.5044" stroke="currentColor" stroke-width="1.5" stroke-linecap="round" stroke-linejoin="round"/>
        <path d="M9.73176 16.5043C9.68976 16.5873 9.64776 16.6713 9.59576 16.7453C8.91476 17.8663 7.56376 18.4523 6.23276 18.1383C4.55676 17.7403 3.52976 16.0643 3.92876 14.3983C4.26376 12.9633 5.53076 12.0103 6.93476 12.0103H6.94576" stroke="currentColor" stroke-width="1.5" stroke-linecap="round" stroke-linejoin="round"/>
        <path d="M17.8202 12.0103H17.8302C19.2342 12.0103 20.5022 12.9633 20.8372 14.3983C21.2352 16.0643 20.2082 17.7403 18.5432 18.1383C17.1812 18.4633 15.8192 17.8453 15.1382 16.7033C15.1172 16.6723 15.0962 16.6303 15.0752 16.5883" stroke="currentColor" stroke-width="1.5" stroke-linecap="round" stroke-linejoin="round"/>
        <path d="M17.8194 11.9895H17.8294C19.2334 11.9895 20.5014 11.0365 20.8364 9.60049C21.2344 7.93549 20.2074 6.25949 18.5424 5.86149C17.1804 5.53649 15.7874 6.21749 15.1064 7.35949M15.1064 7.35949C15.0854 7.39049 15.1274 7.31749 15.1064 7.35949ZM15.1064 7.35949C15.7244 6.17549 15.5674 4.64649 14.5824 3.66149C13.3674 2.44649 11.3874 2.44649 10.1724 3.66149C9.20839 4.63549 9.01939 6.09149 9.59639 7.25449M9.59639 7.25449L9.73239 7.49549C9.69039 7.41149 9.64839 7.32749 9.59639 7.25449ZM9.59639 7.25449C8.91539 6.13349 7.56339 5.54749 6.23339 5.86149C4.55739 6.25949 3.53039 7.93549 3.92839 9.60049C4.26339 11.0365 5.53139 11.9895 6.93539 11.9895H6.94539" stroke="currentColor" stroke-width="1.5" stroke-linecap="round" stroke-linejoin="round"/>
        <path fill-rule="evenodd" clip-rule="evenodd" d="M14.1133 11.9993C14.1133 11.0443 13.3383 10.2693 12.3833 10.2693C11.4273 10.2693 10.6533 11.0443 10.6533 11.9993C10.6533 12.9553 11.4273 13.7293 12.3833 13.7293C13.3383 13.7293 14.1133 12.9553 14.1133 11.9993Z" stroke="currentColor" stroke-width="1.5" stroke-linecap="round" stroke-linejoin="round"/>
    </symbol>

    <symbol id="parkingIcon" width="24" height="24" viewBox="0 0 24 24" fill="none" >
        <path d="M12 3C16.9706 3 21 7.02944 21 12C21 16.9706 16.9706 21 12 21C7.02944 21 3 16.9706 3 12C3 7.02944 7.02944 3 12 3Z" stroke="currentColor" stroke-width="1.5" stroke-linecap="round" stroke-linejoin="round"/>
        <path d="M9.82617 15.9587V8.04163H13.1683C14.3777 8.04163 15.3575 9.02141 15.3575 10.2308C15.3575 11.4392 14.3777 12.419 13.1683 12.419H9.93709" stroke="currentColor" stroke-width="1.5" stroke-linecap="round" stroke-linejoin="round"/>
    </symbol>

    <symbol id="homeHeatingIcon" width="24" height="24" viewBox="0 0 24 24" fill="none" >
        <path d="M6.78462 21H17.2159C19.0509 21 20.5376 19.5123 20.5376 17.6783V10.5045C20.5376 9.6133 20.1367 8.76973 19.4459 8.20638L13.8718 3.66551C12.782 2.77816 11.2185 2.77816 10.1287 3.66551L4.55457 8.20638C3.86376 8.76973 3.46289 9.6133 3.46289 10.5045V17.6783C3.46289 19.5123 4.94959 21 6.78462 21Z" stroke="currentColor" stroke-width="1.5" stroke-linecap="round" stroke-linejoin="round"/>
        <path d="M12.0293 15.2285V17.2465" stroke="currentColor" stroke-width="1.5" stroke-linecap="round" stroke-linejoin="round"/>
        <path d="M8.4375 12.3145V17.2484" stroke="currentColor" stroke-width="1.5" stroke-linecap="round" stroke-linejoin="round"/>
        <path d="M15.5645 11.2598V17.2465" stroke="currentColor" stroke-width="1.5" stroke-linecap="round" stroke-linejoin="round"/>
    </symbol>

    <symbol id="tradingHomeIcon" width="24" height="24" viewBox="0 0 24 24" fill="none" >
        <path d="M6.99286 20.2743H17.007C18.7686 20.2743 20.1959 18.8461 20.1959 17.0855V10.1986C20.1959 9.34298 19.8111 8.53314 19.1478 7.99233L13.7966 3.63397C12.7505 2.78117 11.2494 2.78117 10.2032 3.63397L4.85198 7.99233C4.18879 8.53314 3.80396 9.34298 3.80396 10.1986V17.0855C3.80396 18.8461 5.23122 20.2743 6.99286 20.2743Z" stroke="currentColor" stroke-width="1.5" stroke-linecap="round" stroke-linejoin="round"/>
        <path d="M7.79956 15.3845L10.4927 11.8852L13.5647 14.2972L16.2001 10.8956" stroke="currentColor" stroke-width="1.5" stroke-linecap="round" stroke-linejoin="round"/>
    </symbol>

    <symbol id="discountIcon" width="24" height="24" viewBox="0 0 24 24" fill="none" >
        <path d="M17.9981 6L6 17.9981" stroke="currentColor" stroke-width="1.5" stroke-linecap="round" stroke-linejoin="round"/>
        <path fill-rule="evenodd" clip-rule="evenodd" d="M16.5729 15.1445C17.3613 15.1445 18.0012 15.7844 18.0012 16.5729C18.0012 17.3613 17.3613 18.0012 16.5729 18.0012C15.7844 18.0012 15.1445 17.3613 15.1445 16.5729C15.1445 15.7844 15.7844 15.1445 16.5729 15.1445Z" stroke="currentColor" stroke-width="1.5" stroke-linecap="round" stroke-linejoin="round"/>
        <path fill-rule="evenodd" clip-rule="evenodd" d="M7.42835 6C8.2168 6 8.8567 6.6399 8.8567 7.42835C8.8567 8.2168 8.2168 8.8567 7.42835 8.8567C6.6399 8.8567 6 8.2168 6 7.42835C6 6.6399 6.6399 6 7.42835 6Z" stroke="currentColor" stroke-width="1.5" stroke-linecap="round" stroke-linejoin="round"/>
    </symbol>

    <symbol id="mapIcon" width="24" height="24" viewBox="0 0 24 24" fill="none" >
        <path fill-rule="evenodd" clip-rule="evenodd" d="M14.8664 20.802L9.13362 18.7169C8.78238 18.5894 8.39514 18.6031 8.05362 18.7548L4.46724 20.3486C3.77741 20.656 3 20.1511 3 19.3951V6.73084C3 5.97289 3.44659 5.285 4.13935 4.97754L8.05362 3.23786C8.39514 3.08608 8.78238 3.07246 9.13362 3.19992L14.8664 5.285C15.2176 5.41246 15.6049 5.39884 15.9464 5.24705L19.5328 3.65332C20.2226 3.34684 21 3.85181 21 4.60684V17.272C21 18.03 20.5534 18.7169 19.8606 19.0243L15.9464 20.764C15.6049 20.9158 15.2176 20.9294 14.8664 20.802Z" stroke="currentColor" stroke-width="1.5" stroke-linecap="round" stroke-linejoin="round"/>
        <path d="M8.58521 3.125V18.5204" stroke="currentColor" stroke-width="1.5" stroke-linecap="round" stroke-linejoin="round"/>
        <path d="M15.4131 20.8521V5.38281" stroke="currentColor" stroke-width="1.5" stroke-linecap="round" stroke-linejoin="round"/>
    </symbol>

</svg>